<svg xmlns="http://www.w3.org/2000/svg" viewBox="0 0 64 64">
  <rect width="64" height="64" rx="14" fill="#edf458" stroke="#354f32" stroke-width="4" />
  <path
    d="M20 32c0-6.6 5.8-12 12.9-12h2.2C42.2 20 48 25.4 48 32c0 4-1.9 7.4-4.9 9.6.1.4.1.8.1 1.2 0 2.6-1.8 4.2-4.6 4.2-1.6 0-3.1-.6-4.2-1.6a8.1 8.1 0 0 1-6.8 0c-1.1 1-2.6 1.6-4.2 1.6-2.8 0-4.6-1.6-4.6-4.2 0-.4 0-.8.1-1.2C21.9 39.4 20 36 20 32Z"
    fill="#1f2b1d"
  />
  <path
    d="M24 31.5c0-3.8 3.1-6.9 7-6.9h2c3.8 0 7 3.1 7 6.9 0 1.9-.8 3.7-2.2 4.9.1.3.2.7.2 1.1 0 2-1.4 3.3-3.6 3.3-1.2 0-2.4-.5-3.3-1.2a6.3 6.3 0 0 1-4.6 0c-.9.7-2.1 1.2-3.3 1.2-2.2 0-3.6-1.3-3.6-3.3 0-.4.1-.8.2-1.1a6.2 6.2 0 0 1-2.2-4.9Z"
    fill="#354f32"
  />
  <circle cx="27.5" cy="31.5" r="1.5" fill="#edf458" />
  <circle cx="36.5" cy="31.5" r="1.5" fill="#edf458" />
  <path
    d="M28 36.5c1.2 1 2.7 1.5 4 1.5s2.8-.5 4-1.5"
    fill="none"
    stroke="#edf458"
    stroke-width="2.4"
    stroke-linecap="round"
  />
</svg>

